<svg xmlns="http://www.w3.org/2000/svg" version="1.1" xmlns:xlink="http://www.w3.org/1999/xlink" xmlns:svgjs="http://svgjs.dev/svgjs" width="1500" height="1500" viewBox="0 0 1500 1500"><rect width="1500" height="1500" fill="#ffffff"></rect><g transform="matrix(0.6666666666666666,0,0,0.6666666666666666,249.39393939393938,435.99032258064517)"><svg viewBox="0 0 396 248" data-background-color="#ffffff" preserveAspectRatio="xMidYMid meet" height="939" width="1500" xmlns="http://www.w3.org/2000/svg" xmlns:xlink="http://www.w3.org/1999/xlink"><g id="tight-bounds" transform="matrix(1,0,0,1,0.2400000000000091,0.4000000000000057)"><svg viewBox="0 0 395.52 247.2" height="247.2" width="395.52"><g><svg></svg></g><g><svg viewBox="0 0 395.52 247.2" height="247.2" width="395.52"><mask id="95a98975-5c6d-4d17-9c80-8aabce87812a"><rect width="640" height="400" fill="white"></rect><g transform="matrix(1,0,0,1,39.55199999999999,69.05461928821622)"><svg viewBox="0 0 316.416 109.09076142356756" height="109.09076142356756" width="316.416"><g><svg viewBox="0 0 316.416 109.09076142356756" height="109.09076142356756" width="316.416"><g><svg viewBox="0 0 316.416 109.09076142356756" height="109.09076142356756" width="316.416"><g><svg viewBox="0 0 316.416 109.09076142356756" height="109.09076142356756" width="316.416"><g id="SvgjsG1587"><svg viewBox="0 0 316.416 109.09076142356756" height="109.09076142356756" width="316.416" id="SvgjsSvg1586"><g><svg viewBox="0 0 316.416 63.39628143846325" height="63.39628143846325" width="316.416"><g transform="matrix(1,0,0,1,0,0)"><svg width="316.416" viewBox="-3.4 -41.35 224.83 45.85" height="63.39628143846325" data-palette-color="#000000"><path d="M20.2-21.75L20.2-21.75Q23.05-21.75 24.88-19.6 26.7-17.45 26.9-14.05L26.9-14.05Q26.95-13.15 26.9-11.23 26.85-9.3 26.83-7.05 26.8-4.8 26.8-2.9L26.8-2.9 30.55-1.85 29.75 0Q28.45-0.1 26.8-0.13 25.15-0.15 23.55-0.15L23.55-0.15Q21.6-0.15 20.05-0.1 18.5-0.05 17.2 0L17.2 0 16.55-1.85 20.2-2.9Q20.25-4.6 20.3-5.78 20.35-6.95 20.38-8.13 20.4-9.3 20.35-10.9L20.35-10.9Q20.3-13.95 19.25-15.35 18.2-16.75 16.15-17.2L16.15-17.2Q13.95-15.75 12.95-13.65 11.95-11.55 12-9.65L12-9.65 10.15-11.85Q10.5-14.7 11.88-16.95 13.25-19.2 15.4-20.48 17.55-21.75 20.2-21.75ZM12.05-22L12.05-22Q12.05-20.35 12.05-19.33 12.05-18.3 12.03-17.28 12-16.25 11.9-14.55L11.9-14.55 12.1-2.9 15.75-1.85 15.1 0Q13.4-0.1 11.9-0.13 10.4-0.15 8.6-0.15L8.6-0.15Q6.65-0.15 5.23-0.1 3.8-0.05 2.35 0L2.35 0 1.55-1.85 5.3-2.9Q5.3-4.5 5.43-6.68 5.55-8.85 5.55-10.8L5.55-10.8Q5.55-12.25 5.53-13.23 5.5-14.2 5.4-15.28 5.3-16.35 5.1-18.1L5.1-18.1 1.2-19.05 0.6-20.95Q3.55-21.1 6.18-21.38 8.8-21.65 12.05-22ZM42.8-21.85L42.8-21.85Q45.3-21.85 47.42-20.75 49.55-19.65 50.82-17.43 52.1-15.2 52.1-11.85L52.1-11.85Q51-11.65 49.2-11.5 47.4-11.35 45.25-11.28 43.1-11.2 40.95-11.2L40.95-11.2Q39.35-11.2 38.2-11.25 37.05-11.3 36.65-11.35L36.65-11.35 36.65-13.75Q37.2-13.75 38.32-13.75 39.45-13.75 40.85-13.8 42.25-13.85 43.57-13.95 44.9-14.05 45.8-14.2L45.8-14.2Q45.75-15.25 45.22-16.32 44.7-17.4 43.65-18.15 42.6-18.9 40.95-18.9L40.95-18.9Q39.95-17.95 39.35-16.28 38.75-14.6 38.75-12.4L38.75-12.4Q38.75-7.9 40.62-5.78 42.5-3.65 45.25-3.65L45.25-3.65Q48.05-3.65 51.15-5.65L51.15-5.65 52.25-3.35Q50.1-1.4 47.65-0.55 45.2 0.3 42.8 0.3L42.8 0.3Q40 0.3 37.57-0.93 35.15-2.15 33.67-4.6 32.2-7.05 32.2-10.7L32.2-10.7Q32.2-14.4 33.72-16.88 35.25-19.35 37.67-20.6 40.1-21.85 42.8-21.85ZM67.75-20.95L67.75-20.95 68.5-19.05 64.95-18Q65.55-16.15 66.02-14.73 66.5-13.3 67-12.03 67.5-10.75 68.09-9.28 68.7-7.8 69.59-5.85L69.59-5.85Q69.59-5.35 69.09-4.33 68.59-3.3 67.9-2.2 67.2-1.1 66.52-0.33 65.84 0.45 65.45 0.45L65.45 0.45Q64-3.25 62.75-6.23 61.5-9.2 60.22-12.03 58.95-14.85 57.45-18L57.45-18 53.65-19.05 54.45-20.95Q55.95-20.9 57.45-20.85 58.95-20.8 60.65-20.8L60.65-20.8Q65.05-20.8 67.75-20.95ZM72.7-21.2L72.7-21.2 75.4-21.15 74.95-15.85Q73.2-11.9 71.55-7.73 69.9-3.55 68.4 0.45L68.4 0.45 65.45 0.45Q66.5-1.9 67.55-4.73 68.59-7.55 69.57-10.5 70.55-13.45 71.37-16.2 72.2-18.95 72.7-21.2ZM71.45-13.75L75.4-21.15Q76.7-17.7 77.7-15.13 78.7-12.55 79.67-10.18 80.65-7.8 81.84-4.9L81.84-4.9Q81.84-4.4 81.34-3.5 80.84-2.6 80.09-1.7 79.34-0.8 78.62-0.18 77.9 0.45 77.45 0.45L77.45 0.45Q76.3-2.65 75.42-4.95 74.55-7.25 73.65-9.3 72.75-11.35 71.45-13.75L71.45-13.75ZM91.5-20.95L91.5-20.95 92.34-19.05 88.25-18Q86.75-14.65 85.42-11.68 84.09-8.7 82.87-5.78 81.65-2.85 80.34 0.45L80.34 0.45 77.45 0.45Q79.2-3.55 81-8.3 82.8-13.05 83.9-18L83.9-18 79.9-19.05 80.65-20.95Q83.75-20.8 86.3-20.8L86.3-20.8Q88-20.8 89.07-20.85 90.15-20.9 91.5-20.95ZM94.14-1.3L94.14-1.3Q94.54-3.2 94.82-4.48 95.09-5.75 95.29-7.25L95.29-7.25 97.79-7.25 98.59-3.35Q99.24-2.8 100.14-2.5 101.04-2.2 101.94-2.2L101.94-2.2Q103.19-2.2 104.17-2.8 105.14-3.4 105.14-4.65L105.14-4.65Q105.14-5.7 104.37-6.38 103.59-7.05 102.39-7.58 101.19-8.1 99.84-8.63 98.49-9.15 97.29-9.95 96.09-10.75 95.32-11.95 94.54-13.15 94.54-15L94.54-15Q94.54-17.55 95.79-19.03 97.04-20.5 99.07-21.15 101.09-21.8 103.34-21.8L103.34-21.8Q105.09-21.8 106.99-21.4 108.89-21 110.44-20.25L110.44-20.25Q110.04-18.5 109.72-17.15 109.39-15.8 109.14-14.5L109.14-14.5 106.54-14.55 105.89-17.95Q104.99-19.15 102.94-19.15L102.94-19.15Q101.84-19.15 100.92-18.65 99.99-18.15 99.99-17L99.99-17Q99.99-15.9 100.79-15.23 101.59-14.55 102.87-14.05 104.14-13.55 105.59-12.98 107.04-12.4 108.32-11.55 109.59-10.7 110.39-9.38 111.19-8.05 111.19-6L111.19-6Q111.19-3.6 109.89-2.18 108.59-0.75 106.44-0.13 104.29 0.5 101.79 0.5L101.79 0.5Q99.89 0.5 97.94 0.1 95.99-0.3 94.14-1.3ZM134.39-37.25L134.39-37.25Q134.34-35.85 134.34-34.38 134.34-32.9 134.34-31.45L134.34-31.45Q134.34-28.85 134.36-26.75 134.39-24.65 134.41-22.58 134.44-20.5 134.44-17.9L134.44-17.9Q134.44-16.85 134.44-14.93 134.44-13 134.44-10.85 134.44-8.7 134.46-6.85 134.49-5 134.49-4.1L134.49-4.1 133.39-3.15Q132.84-2.5 132.01-1.68 131.19-0.85 130.34 0L130.34 0 127.24 0Q127.34-1.3 127.39-3.4 127.44-5.5 127.49-8 127.54-10.5 127.56-13.05 127.59-15.6 127.61-17.85 127.64-20.1 127.64-21.7L127.64-21.7Q127.64-24.65 127.49-27.4 127.34-30.15 126.99-33.55L126.99-33.55 122.99-34.2 122.54-36.35Q123.39-36.4 124.86-36.45 126.34-36.5 128.09-36.63 129.84-36.75 131.51-36.9 133.19-37.05 134.39-37.25ZM141.34-21.8L141.34-21.8Q144.09-21.8 145.94-20.28 147.79-18.75 148.76-16.32 149.74-13.9 149.74-11.2L149.74-11.2Q149.74-8.35 148.66-5.73 147.59-3.1 145.44-1.43 143.29 0.25 140.04 0.25L140.04 0.25Q137.29 0.25 135.21-1.3 133.14-2.85 131.64-5.25L131.64-5.25 132.94-7.35Q133.74-5.75 135.09-4.5 136.44-3.25 138.74-3.25L138.74-3.25Q140.09-3.25 141.04-4.28 141.99-5.3 142.49-6.95 142.99-8.6 142.99-10.4L142.99-10.4Q142.99-12.2 142.49-13.93 141.99-15.65 140.99-16.85 139.99-18.05 138.49-18.25L138.49-18.25Q136.94-18 135.69-15.93 134.44-13.85 134.44-10.2L134.44-10.2 132.99-14.55Q133.49-16.5 134.56-18.15 135.64-19.8 137.34-20.8 139.04-21.8 141.34-21.8ZM162.49-21.75L162.49-21.75Q162.44-18.85 162.36-16.2 162.29-13.55 162.29-11.4L162.29-11.4Q162.29-9.55 162.36-7.15 162.44-4.75 162.49-2.9L162.49-2.9 166.49-1.85 165.64 0Q164.34-0.1 163.01-0.13 161.69-0.15 159.04-0.15L159.04-0.15Q156.59-0.15 155.21-0.1 153.84-0.05 152.29 0L152.29 0 151.49-1.85 155.74-2.9Q155.84-5.4 155.86-7.25 155.89-9.1 155.84-11.3L155.84-11.3Q155.84-12.45 155.81-13.35 155.79-14.25 155.74-15.38 155.69-16.5 155.54-18.25L155.54-18.25 151.99-18.9 151.24-20.8Q152.39-20.85 154.21-20.95 156.04-21.05 158.19-21.25 160.34-21.45 162.49-21.75ZM158.74-25.45L158.74-25.45Q157.14-25.45 155.99-26.65 154.84-27.85 154.84-29.6L154.84-29.6Q154.84-31.25 155.99-32.45 157.14-33.65 158.74-33.65L158.74-33.65Q160.34-33.65 161.49-32.45 162.64-31.25 162.64-29.6L162.64-29.6Q162.64-27.85 161.49-26.65 160.34-25.45 158.74-25.45ZM177.63-21.7L177.63-21.7Q177.68-20.55 177.78-19 177.88-17.45 177.98-16.18 178.08-14.9 178.08-14.45L178.08-14.45 178.43-3.1 183.38-1.85 182.63 0Q181.78-0.05 180.38-0.08 178.98-0.1 177.48-0.13 175.98-0.15 174.78-0.15L174.78-0.15Q173.23-0.15 171.43-0.1 169.63-0.05 168.13 0L168.13 0 167.38-1.85 171.43-2.9Q171.43-5.15 171.43-6.93 171.43-8.7 171.43-10.8L171.43-10.8Q171.43-11.95 171.41-12.93 171.38-13.9 171.33-15.13 171.28-16.35 171.13-18.15L171.13-18.15 167.73-18.7 167.03-20.8Q168.18-20.85 170.11-20.95 172.03-21.05 174.08-21.25 176.13-21.45 177.63-21.7ZM184.33-21.8L184.33-21.8Q185.73-21.8 186.93-21.28 188.13-20.75 189.23-19.6L189.23-19.6Q188.93-18.1 188.68-17 188.43-15.9 188.11-14.83 187.78-13.75 187.33-12.2L187.33-12.2 184.53-12.2Q184.18-14.05 183.51-15.43 182.83-16.8 181.68-17.3L181.68-17.3Q180.43-16.5 179.31-14.33 178.18-12.15 178.18-8.55L178.18-8.55 176.23-11.45Q176.63-14.25 177.78-16.6 178.93-18.95 180.61-20.38 182.28-21.8 184.33-21.8ZM213.63-37.35L213.63-37.35Q213.63-34.15 213.61-30.35 213.58-26.55 213.58-21.7L213.58-21.7Q213.58-17.65 213.58-13.88 213.58-10.1 213.61-7.23 213.63-4.35 213.68-2.9L213.68-2.9 217.43-1.85 216.68 0Q215.38-0.1 214.13-0.1 212.88-0.1 211.08-0.1L211.08-0.1Q209.73-0.1 208.83-0.08 207.93-0.05 207.23 0L207.23 0Q207.18-1 207.06-1.88 206.93-2.75 206.83-3.7L206.83-3.7Q206.88-5.95 206.91-8.2 206.93-10.45 206.93-12.55L206.93-12.55Q206.93-14 206.93-15.4 206.93-16.8 206.88-18.3L206.88-18.3Q206.88-20.6 206.81-23.3 206.73-26 206.61-28.7 206.48-31.4 206.28-33.6L206.28-33.6 202.23-34.25 201.78-36.4Q202.63-36.4 204.13-36.5 205.63-36.6 207.41-36.73 209.18-36.85 210.83-37.02 212.48-37.2 213.63-37.35ZM200.58-21.8L200.58-21.8Q203.33-21.8 205.43-20.35 207.53-18.9 208.48-16.25L208.48-16.25 206.93-12Q206.93-13.75 206.21-15.18 205.48-16.6 204.43-17.53 203.38-18.45 202.43-18.65L202.43-18.65Q200.43-18.05 199.31-15.9 198.18-13.75 198.18-10.95L198.18-10.95Q198.18-7.15 199.63-5.3 201.08-3.45 202.93-3.45L202.93-3.45Q204.68-3.45 206.26-5.35 207.83-7.25 208.43-10.35L208.43-10.35 209.98-8.1Q208.63-4.45 206.31-2.05 203.98 0.35 200.58 0.35L200.58 0.35Q198.33 0.35 196.21-0.93 194.08-2.2 192.73-4.73 191.38-7.25 191.38-11.05L191.38-11.05Q191.38-14.6 192.78-17 194.18-19.4 196.31-20.6 198.43-21.8 200.58-21.8Z" opacity="1" transform="matrix(1,0,0,1,0,0)" fill="black" class="wordmark-text-0" id="SvgjsPath1585" stroke-width="7" stroke="black" stroke-linejoin="round"></path></svg></g></svg></g><g transform="matrix(1,0,0,1,3.5,76.02673827949786)"><svg viewBox="0 0 309.416 33.06402314406969" height="33.06402314406969" width="309.416"><g transform="matrix(1,0,0,1,0,0)"><svg width="309.416" viewBox="-2 -41.8 550.86 59.25" height="33.06402314406969" data-palette-color="#89939e"><path d="M12.2 1L12.2 1Q9.4 1 7.08-0.68 4.75-2.35 3.38-5.3 2-8.25 2-12.05L2-12.05Q2-16.4 3.55-19.5 5.1-22.6 7.93-24.28 10.75-25.95 14.6-25.95L14.6-25.95Q16-25.95 17.43-25.6 18.85-25.25 19.95-24.7L19.95-24.7 20.1-24.7 20.1-34.3 15.95-34.7Q15.8-35.7 16.2-36.45L16.2-36.45Q19.8-37 22.95-37.8L22.95-37.8Q23.9-37.75 24.95-37.25L24.95-37.25 24.95-2.4Q25.4-2 26.45-1.75 27.5-1.5 28.45-1.4L28.45-1.4Q28.6-0.45 28.2 0.35L28.2 0.35Q27.4 0.5 26.28 0.6 25.15 0.7 24 0.7L24 0.7Q22.35 0.7 21.15 0.4L21.15 0.4Q20.75-0.25 20.53-0.9 20.3-1.55 20.2-2.25L20.2-2.25 19.95-2.25Q17.85-0.45 16.07 0.28 14.3 1 12.2 1ZM14.25-1.9L14.25-1.9Q16.2-1.9 17.6-2.73 19-3.55 19.95-4.55L19.95-4.55 19.95-21.95Q19-22.8 17.73-23.18 16.45-23.55 15-23.55L15-23.55Q11.1-23.55 9.2-20.55 7.3-17.55 7.3-12.5L7.3-12.5Q7.3-7.35 9.08-4.63 10.85-1.9 14.25-1.9ZM71.84 0.85L71.84 0.85Q68.84 0.85 66.79-0.73 64.74-2.3 64.74-5.5L64.74-5.5Q64.74-8 65.97-9.6 67.19-11.2 69.27-12.08 71.34-12.95 73.89-13.25 76.44-13.55 79.09-13.5L79.09-13.5 79.14-17.9Q79.19-20.7 78.09-22.23 76.99-23.75 74.74-23.75L74.74-23.75Q73.49-23.75 72.34-23.58 71.19-23.4 70.04-23L70.04-23 69.39-17.7Q68.99-17.5 68.29-17.48 67.59-17.45 67.19-17.5L67.19-17.5Q66.74-19.15 66.44-20.8 66.14-22.45 66.19-24L66.19-24Q68.54-25.1 70.92-25.55 73.29-26 76.09-26L76.09-26Q78.89-26 80.62-25.1 82.34-24.2 83.17-22 83.99-19.8 83.99-15.85L83.99-15.85 83.99-2.45Q84.84-2.05 85.74-1.88 86.64-1.7 87.49-1.45L87.49-1.45Q87.64-0.5 87.24 0.3L87.24 0.3Q86.44 0.45 85.32 0.55 84.19 0.65 83.04 0.65L83.04 0.65Q81.39 0.65 80.19 0.35L80.19 0.35 79.49-2.25 79.29-2.25Q78.04-0.95 76.19-0.05 74.34 0.85 71.84 0.85ZM73.74-1.9L73.74-1.9Q75.14-1.9 76.74-2.78 78.34-3.65 79.09-4.75L79.09-4.75 79.09-11.5Q73.94-11.5 71.84-10.28 69.74-9.05 69.74-6L69.74-6Q69.74-3.95 70.84-2.93 71.94-1.9 73.74-1.9ZM132.18-24.95L132.18-2.5 135.53-1.5Q135.68-0.55 135.28 0.25L135.28 0.25Q133.93 0.15 132.51 0.08 131.08 0 129.68 0L129.68 0Q128.28 0 126.63 0.08 124.98 0.15 123.58 0.25L123.58 0.25Q123.43-0.7 123.68-1.5L123.68-1.5Q124.63-1.75 125.56-1.95 126.48-2.15 127.18-2.5L127.18-2.5 127.18-22 123.03-22.4Q122.88-23.4 123.28-24.15L123.28-24.15Q125.08-24.4 126.91-24.75 128.73-25.1 130.28-25.5L130.28-25.5Q130.78-25.45 131.23-25.33 131.68-25.2 132.18-24.95L132.18-24.95ZM128.83-30.05L128.83-30.05Q127.98-30.05 127.28-30.6 126.58-31.15 126.18-31.95 125.78-32.75 125.78-33.45L125.78-33.45Q125.78-34.1 126.33-34.77 126.88-35.45 127.71-35.93 128.53-36.4 129.33-36.4L129.33-36.4Q130.23-36.4 130.93-35.83 131.63-35.25 132.01-34.48 132.38-33.7 132.38-33L132.38-33Q132.38-32.35 131.86-31.65 131.33-30.95 130.51-30.5 129.68-30.05 128.83-30.05ZM179.87-37.25L179.87-2.5 183.72-1.5Q183.87-0.55 183.47 0.25L183.47 0.25Q182.12 0.15 180.45 0.08 178.77 0 177.37 0L177.37 0Q175.97 0 174.32 0.08 172.67 0.15 171.27 0.25L171.27 0.25Q171.12-0.7 171.37-1.5L171.37-1.5Q172.32-1.75 173.25-1.95 174.17-2.15 174.87-2.5L174.87-2.5 174.87-34.3 170.72-34.7Q170.57-35.7 170.97-36.45L170.97-36.45Q172.77-36.7 174.6-37.05 176.42-37.4 177.97-37.8L177.97-37.8Q178.47-37.75 178.92-37.63 179.37-37.5 179.87-37.25L179.87-37.25ZM223.86 13.45L223.86 13.45Q223.01 12.15 222.14 10.45 221.26 8.75 221.01 7.05L221.01 7.05Q221.31 6.8 221.89 6.58 222.46 6.35 222.91 6.35L222.91 6.35 226.11 10.1Q227.46 8.8 228.89 6.18 230.31 3.55 231.56 0.2L231.56 0.2 222.46-22.5 218.61-23.5Q218.46-24.45 218.86-25.25L218.86-25.25Q220.21-25.2 221.79-25.1 223.36-25 224.76-25L224.76-25Q226.21-25 227.89-25.1 229.56-25.2 230.96-25.25L230.96-25.25Q231.11-24.3 230.86-23.5L230.86-23.5Q229.96-23.3 229.09-23.1 228.21-22.9 227.41-22.5L227.41-22.5 231.56-12.45Q231.81-11.85 232.31-10.63 232.81-9.4 233.31-7.85 233.81-6.3 234.11-4.7L234.11-4.7 234.26-4.7Q234.56-5.85 234.91-7.38 235.26-8.9 236.21-11.35L236.21-11.35 240.46-22.5 237.01-23.5Q236.86-24.45 237.26-25.25L237.26-25.25Q238.61-25.2 239.69-25.1 240.76-25 242.16-25L242.16-25Q243.61-25 244.61-25.1 245.61-25.2 247.01-25.25L247.01-25.25Q247.16-24.3 246.91-23.5L246.91-23.5Q246.01-23.3 245.09-23.1 244.16-22.9 243.46-22.5L243.46-22.5 233.66 2.35Q232.36 5.65 230.76 8.15 229.16 10.65 227.41 12.05 225.66 13.45 223.86 13.45ZM336.44-25.05L336.29-21.65 336.34-21.6Q338.74-24 341.29-24.9 343.84-25.8 345.74-25.8L345.74-25.8Q348.99-25.8 350.87-23.95 352.74-22.1 352.74-18.55L352.74-18.55 352.79-2.5 356.29-1.5Q356.44-0.55 356.04 0.25L356.04 0.25Q354.69 0.15 353.19 0.08 351.69 0 350.29 0L350.29 0Q348.89 0 347.34 0.08 345.79 0.15 344.39 0.25L344.39 0.25Q344.24-0.7 344.49-1.5L344.49-1.5Q345.49-1.7 346.27-1.95 347.04-2.2 347.79-2.5L347.79-2.5 347.79-16.3Q347.79-19.7 346.74-21 345.69-22.3 343.39-22.3L343.39-22.3Q341.54-22.3 339.79-21.58 338.04-20.85 336.69-19.3L336.69-19.3 336.69-2.5 340.04-1.5Q340.19-0.55 339.79 0.25L339.79 0.25Q338.44 0.15 337.02 0.08 335.59 0 334.19 0L334.19 0Q332.79 0 331.14 0.08 329.49 0.15 328.09 0.25L328.09 0.25Q327.94-0.7 328.19-1.5L328.19-1.5Q329.09-1.75 329.99-1.98 330.89-2.2 331.69-2.5L331.69-2.5 331.69-22 327.54-22.4Q327.39-23.4 327.79-24.15L327.79-24.15Q329.64-24.45 331.39-24.8 333.14-25.15 334.74-25.5L334.74-25.5Q335.59-25.45 336.44-25.05L336.44-25.05ZM397.93-13.5L397.93-12.5Q397.93-7.45 399.96-4.67 401.98-1.9 405.48-1.9L405.48-1.9Q407.03-1.9 408.08-2.08 409.13-2.25 410.16-2.75 411.18-3.25 412.48-4.15L412.48-4.15Q413.28-3.8 413.38-2.95L413.38-2.95Q411.83-1.15 409.68-0.15 407.53 0.85 405.33 0.85L405.33 0.85Q401.53 0.85 398.68-0.75 395.83-2.35 394.23-5.35 392.63-8.35 392.63-12.5L392.63-12.5Q392.63-16.75 394.31-19.73 395.98-22.7 398.81-24.28 401.63-25.85 405.08-25.85L405.08-25.85Q409.53-25.85 411.66-22.88 413.78-19.9 413.78-15.2L413.78-15.2Q413.78-14.85 413.78-14.55 413.78-14.25 413.73-13.9L413.73-13.9 413.03-13.35 397.93-13.5ZM405.03-23.7L405.03-23.7Q403.58-23.7 402.16-22.8 400.73-21.9 399.63-20.1 398.53-18.3 398.13-15.55L398.13-15.55 409.03-16.15Q409.03-20 408.21-21.85 407.38-23.7 405.03-23.7ZM477.17 1.4L470.87-16.65 464.67 0.7Q464.32 0.9 463.55 1.13 462.77 1.35 462.32 1.35L462.32 1.35 453.12-22.5 449.27-23.5Q449.12-24.45 449.52-25.25L449.52-25.25Q450.87-25.2 452.55-25.1 454.22-25 455.62-25L455.62-25Q457.07-25 458.8-25.1 460.52-25.2 461.92-25.25L461.92-25.25Q462.07-24.3 461.82-23.5L461.82-23.5Q460.92-23.3 460-23.08 459.07-22.85 458.37-22.5L458.37-22.5 462.07-12.05Q462.67-10.35 463.22-8.5 463.77-6.65 464.17-4.95L464.17-4.95 464.32-4.95Q464.77-6.7 465.3-8.5 465.82-10.3 466.37-11.85L466.37-11.85 469.57-20.4 468.87-22.5 465.02-23.5Q464.87-24.45 465.27-25.25L465.27-25.25Q466.62-25.2 468.22-25.1 469.82-25 471.22-25L471.22-25Q472.67-25 474.12-25.1 475.57-25.2 476.97-25.25L476.97-25.25Q477.12-24.3 476.87-23.5L476.87-23.5Q475.97-23.3 475.02-23.1 474.07-22.9 473.42-22.5L473.42-22.5 476.77-11.6Q477.32-9.75 477.87-8 478.42-6.25 478.87-4.45L478.87-4.45 479.02-4.45Q479.42-6.15 479.92-7.83 480.42-9.5 480.97-11.2L480.97-11.2 484.52-22.5 480.67-23.5Q480.52-24.45 480.92-25.25L480.92-25.25Q482.27-25.2 483.4-25.1 484.52-25 485.92-25L485.92-25Q487.37-25 488.6-25.1 489.82-25.2 491.22-25.25L491.22-25.25Q491.37-24.3 491.12-23.5L491.12-23.5Q490.17-23.3 489.25-23.1 488.32-22.9 487.57-22.5L487.57-22.5 479.57 0.7Q479.22 0.9 478.42 1.15 477.62 1.4 477.17 1.4L477.17 1.4ZM529.96-7.5L530.46-2.2Q531.51-1.7 532.59-1.5 533.66-1.3 535.01-1.3L535.01-1.3Q537.06-1.3 538.66-2.2 540.26-3.1 540.26-5.1L540.26-5.1Q540.26-6.15 539.69-7.05 539.11-7.95 537.69-8.9 536.26-9.85 533.61-11.05L533.61-11.05Q530.71-12.4 529.11-14.18 527.51-15.95 527.51-19.1L527.51-19.1Q527.51-21.65 528.79-23.13 530.06-24.6 532.09-25.25 534.11-25.9 536.36-25.9L536.36-25.9Q538.31-25.9 540.24-25.53 542.16-25.15 543.66-24.5L543.66-24.5Q543.66-24.25 543.69-23.95 543.71-23.65 543.71-23.4L543.71-23.4Q543.71-20.35 542.76-17.65L542.76-17.65Q542.56-17.6 542.39-17.57 542.21-17.55 542.01-17.55L542.01-17.55Q541.26-17.55 540.51-17.85L540.51-17.85 539.71-23.25Q539.06-23.45 538.21-23.58 537.36-23.7 536.51-23.7L536.51-23.7Q535.36-23.7 534.24-23.38 533.11-23.05 532.39-22.28 531.66-21.5 531.66-20.1L531.66-20.1Q531.66-19.15 532.09-18.3 532.51-17.45 533.79-16.53 535.06-15.6 537.61-14.35L537.61-14.35Q541.61-12.45 543.24-10.68 544.86-8.9 544.86-6.25L544.86-6.25Q544.86-3.7 543.51-2.1 542.16-0.5 539.99 0.25 537.81 1 535.36 1L535.36 1Q533.01 1 530.99 0.63 528.96 0.25 526.91-1L526.91-1 526.91-1.85Q526.91-3.2 527.09-4.63 527.26-6.05 527.81-7.7L527.81-7.7Q528.11-7.75 528.31-7.75L528.31-7.75Q529.21-7.75 529.96-7.5L529.96-7.5Z" opacity="1" transform="matrix(1,0,0,1,0,0)" fill="black" class="slogan-text-1" id="SvgjsPath1584" stroke-width="7" stroke="black" stroke-linejoin="round"></path></svg></g></svg></g></svg></g></svg></g><g></g></svg></g></svg></g></svg></g></mask><g transform="matrix(1,0,0,1,39.55199999999999,69.05461928821622)"><svg viewBox="0 0 316.416 109.09076142356756" height="109.09076142356756" width="316.416"><g><svg viewBox="0 0 316.416 109.09076142356756" height="109.09076142356756" width="316.416"><g><svg viewBox="0 0 316.416 109.09076142356756" height="109.09076142356756" width="316.416"><g><svg viewBox="0 0 316.416 109.09076142356756" height="109.09076142356756" width="316.416"><g id="textblocktransform"><svg viewBox="0 0 316.416 109.09076142356756" height="109.09076142356756" width="316.416" id="textblock"><g><svg viewBox="0 0 316.416 63.39628143846325" height="63.39628143846325" width="316.416"><g transform="matrix(1,0,0,1,0,0)"><svg width="316.416" viewBox="-3.4 -41.35 224.83 45.85" height="63.39628143846325" data-palette-color="#000000"><path d="M20.2-21.75L20.2-21.75Q23.05-21.75 24.88-19.6 26.7-17.45 26.9-14.05L26.9-14.05Q26.95-13.15 26.9-11.23 26.85-9.3 26.83-7.05 26.8-4.8 26.8-2.9L26.8-2.9 30.55-1.85 29.75 0Q28.45-0.1 26.8-0.13 25.15-0.15 23.55-0.15L23.55-0.15Q21.6-0.15 20.05-0.1 18.5-0.05 17.2 0L17.2 0 16.55-1.85 20.2-2.9Q20.25-4.6 20.3-5.78 20.35-6.95 20.38-8.13 20.4-9.3 20.35-10.9L20.35-10.9Q20.3-13.95 19.25-15.35 18.2-16.75 16.15-17.2L16.15-17.2Q13.95-15.75 12.95-13.65 11.95-11.55 12-9.65L12-9.65 10.15-11.85Q10.5-14.7 11.88-16.95 13.25-19.2 15.4-20.48 17.55-21.75 20.2-21.75ZM12.05-22L12.05-22Q12.05-20.35 12.05-19.33 12.05-18.3 12.03-17.28 12-16.25 11.9-14.55L11.9-14.55 12.1-2.9 15.75-1.85 15.1 0Q13.4-0.1 11.9-0.13 10.4-0.15 8.6-0.15L8.6-0.15Q6.65-0.15 5.23-0.1 3.8-0.05 2.35 0L2.35 0 1.55-1.85 5.3-2.9Q5.3-4.5 5.43-6.68 5.55-8.85 5.55-10.8L5.55-10.8Q5.55-12.25 5.53-13.23 5.5-14.2 5.4-15.28 5.3-16.35 5.1-18.1L5.1-18.1 1.2-19.05 0.6-20.95Q3.55-21.1 6.18-21.38 8.8-21.65 12.05-22ZM42.8-21.85L42.8-21.85Q45.3-21.85 47.42-20.75 49.55-19.65 50.82-17.43 52.1-15.2 52.1-11.85L52.1-11.85Q51-11.65 49.2-11.5 47.4-11.35 45.25-11.28 43.1-11.2 40.95-11.2L40.95-11.2Q39.35-11.2 38.2-11.25 37.05-11.3 36.65-11.35L36.65-11.35 36.65-13.75Q37.2-13.75 38.32-13.75 39.45-13.75 40.85-13.8 42.25-13.85 43.57-13.95 44.9-14.05 45.8-14.2L45.8-14.2Q45.75-15.25 45.22-16.32 44.7-17.4 43.65-18.15 42.6-18.9 40.95-18.9L40.95-18.9Q39.95-17.95 39.35-16.28 38.75-14.6 38.75-12.4L38.75-12.4Q38.75-7.9 40.62-5.78 42.5-3.65 45.25-3.65L45.25-3.65Q48.05-3.65 51.15-5.65L51.15-5.65 52.25-3.35Q50.1-1.4 47.65-0.55 45.2 0.3 42.8 0.3L42.8 0.3Q40 0.3 37.57-0.93 35.15-2.15 33.67-4.6 32.2-7.05 32.2-10.7L32.2-10.7Q32.2-14.4 33.72-16.88 35.25-19.35 37.67-20.6 40.1-21.85 42.8-21.85ZM67.75-20.95L67.75-20.95 68.5-19.05 64.95-18Q65.55-16.15 66.02-14.73 66.5-13.3 67-12.03 67.5-10.75 68.09-9.28 68.7-7.8 69.59-5.85L69.59-5.85Q69.59-5.35 69.09-4.33 68.59-3.3 67.9-2.2 67.2-1.1 66.52-0.33 65.84 0.45 65.45 0.45L65.45 0.45Q64-3.25 62.75-6.23 61.5-9.2 60.22-12.03 58.95-14.85 57.45-18L57.45-18 53.65-19.05 54.45-20.95Q55.95-20.9 57.45-20.85 58.95-20.8 60.65-20.8L60.65-20.8Q65.05-20.8 67.75-20.95ZM72.7-21.2L72.7-21.2 75.4-21.15 74.95-15.85Q73.2-11.9 71.55-7.73 69.9-3.55 68.4 0.45L68.4 0.45 65.45 0.45Q66.5-1.9 67.55-4.73 68.59-7.55 69.57-10.5 70.55-13.45 71.37-16.2 72.2-18.95 72.7-21.2ZM71.45-13.75L75.4-21.15Q76.7-17.7 77.7-15.13 78.7-12.55 79.67-10.18 80.65-7.8 81.84-4.9L81.84-4.9Q81.84-4.4 81.34-3.5 80.84-2.6 80.09-1.7 79.34-0.8 78.62-0.18 77.9 0.45 77.45 0.45L77.45 0.45Q76.3-2.65 75.42-4.95 74.55-7.25 73.65-9.3 72.75-11.35 71.45-13.75L71.45-13.75ZM91.5-20.95L91.5-20.95 92.34-19.05 88.25-18Q86.75-14.65 85.42-11.68 84.09-8.7 82.87-5.78 81.65-2.85 80.34 0.45L80.34 0.45 77.45 0.45Q79.2-3.55 81-8.3 82.8-13.05 83.9-18L83.9-18 79.9-19.05 80.65-20.95Q83.75-20.8 86.3-20.8L86.3-20.8Q88-20.8 89.07-20.85 90.15-20.9 91.5-20.95ZM94.14-1.3L94.14-1.3Q94.54-3.2 94.82-4.48 95.09-5.75 95.29-7.25L95.29-7.25 97.79-7.25 98.59-3.35Q99.24-2.8 100.14-2.5 101.04-2.2 101.94-2.2L101.94-2.2Q103.19-2.2 104.17-2.8 105.14-3.4 105.14-4.65L105.14-4.65Q105.14-5.7 104.37-6.38 103.59-7.05 102.39-7.58 101.19-8.1 99.84-8.63 98.49-9.15 97.29-9.95 96.09-10.75 95.32-11.95 94.54-13.15 94.54-15L94.54-15Q94.54-17.55 95.79-19.03 97.04-20.5 99.07-21.15 101.09-21.8 103.34-21.8L103.34-21.8Q105.09-21.8 106.99-21.4 108.89-21 110.44-20.25L110.44-20.25Q110.04-18.5 109.72-17.15 109.39-15.8 109.14-14.5L109.14-14.5 106.54-14.55 105.89-17.95Q104.99-19.15 102.94-19.15L102.94-19.15Q101.84-19.15 100.92-18.65 99.99-18.15 99.99-17L99.99-17Q99.99-15.9 100.79-15.23 101.59-14.55 102.87-14.05 104.14-13.55 105.59-12.98 107.04-12.4 108.32-11.55 109.59-10.7 110.39-9.38 111.19-8.05 111.19-6L111.19-6Q111.19-3.6 109.89-2.18 108.59-0.75 106.44-0.13 104.29 0.5 101.79 0.5L101.79 0.5Q99.89 0.5 97.94 0.1 95.99-0.3 94.14-1.3ZM134.39-37.25L134.39-37.25Q134.34-35.85 134.34-34.38 134.34-32.9 134.34-31.45L134.34-31.45Q134.34-28.85 134.36-26.75 134.39-24.65 134.41-22.58 134.44-20.5 134.44-17.9L134.44-17.9Q134.44-16.85 134.44-14.93 134.44-13 134.44-10.85 134.44-8.7 134.46-6.85 134.49-5 134.49-4.1L134.49-4.1 133.39-3.15Q132.84-2.5 132.01-1.68 131.19-0.85 130.34 0L130.34 0 127.24 0Q127.34-1.3 127.39-3.4 127.44-5.5 127.49-8 127.54-10.5 127.56-13.05 127.59-15.6 127.61-17.85 127.64-20.1 127.64-21.7L127.64-21.7Q127.64-24.65 127.49-27.4 127.34-30.15 126.99-33.55L126.99-33.55 122.99-34.2 122.54-36.35Q123.39-36.4 124.86-36.45 126.34-36.5 128.09-36.63 129.84-36.75 131.51-36.9 133.19-37.05 134.39-37.25ZM141.34-21.8L141.34-21.8Q144.09-21.8 145.94-20.28 147.79-18.75 148.76-16.32 149.74-13.9 149.74-11.2L149.74-11.2Q149.74-8.35 148.66-5.73 147.59-3.1 145.44-1.43 143.29 0.25 140.04 0.25L140.04 0.25Q137.29 0.25 135.21-1.3 133.14-2.85 131.64-5.25L131.64-5.25 132.94-7.35Q133.74-5.75 135.09-4.5 136.44-3.25 138.74-3.25L138.74-3.25Q140.09-3.25 141.04-4.28 141.99-5.3 142.49-6.95 142.99-8.6 142.99-10.4L142.99-10.4Q142.99-12.2 142.49-13.93 141.99-15.65 140.99-16.85 139.99-18.05 138.49-18.25L138.49-18.25Q136.94-18 135.69-15.93 134.44-13.85 134.44-10.2L134.44-10.2 132.99-14.55Q133.49-16.5 134.56-18.15 135.64-19.8 137.34-20.8 139.04-21.8 141.34-21.8ZM162.49-21.75L162.49-21.75Q162.44-18.85 162.36-16.2 162.29-13.55 162.29-11.4L162.29-11.4Q162.29-9.55 162.36-7.15 162.44-4.75 162.49-2.9L162.49-2.9 166.49-1.85 165.64 0Q164.34-0.1 163.01-0.13 161.69-0.15 159.04-0.15L159.04-0.15Q156.59-0.15 155.21-0.1 153.84-0.05 152.29 0L152.29 0 151.49-1.85 155.74-2.9Q155.84-5.4 155.86-7.25 155.89-9.1 155.84-11.3L155.84-11.3Q155.84-12.45 155.81-13.35 155.79-14.25 155.74-15.38 155.69-16.5 155.54-18.25L155.54-18.25 151.99-18.9 151.24-20.8Q152.39-20.85 154.21-20.95 156.04-21.05 158.19-21.25 160.34-21.45 162.49-21.75ZM158.74-25.45L158.74-25.45Q157.14-25.45 155.99-26.65 154.84-27.85 154.84-29.6L154.84-29.6Q154.84-31.25 155.99-32.45 157.14-33.65 158.74-33.65L158.74-33.65Q160.34-33.65 161.49-32.45 162.64-31.25 162.64-29.6L162.64-29.6Q162.64-27.85 161.49-26.65 160.34-25.45 158.74-25.45ZM177.63-21.7L177.63-21.7Q177.68-20.55 177.78-19 177.88-17.45 177.98-16.18 178.08-14.9 178.08-14.45L178.08-14.45 178.43-3.1 183.38-1.85 182.63 0Q181.78-0.05 180.38-0.08 178.98-0.1 177.48-0.13 175.98-0.15 174.78-0.15L174.78-0.15Q173.23-0.15 171.43-0.1 169.63-0.05 168.13 0L168.13 0 167.38-1.85 171.43-2.9Q171.43-5.15 171.43-6.93 171.43-8.7 171.43-10.8L171.43-10.8Q171.43-11.95 171.41-12.93 171.38-13.9 171.33-15.13 171.28-16.35 171.13-18.15L171.13-18.15 167.73-18.7 167.03-20.8Q168.18-20.85 170.11-20.95 172.03-21.05 174.08-21.25 176.13-21.45 177.63-21.7ZM184.33-21.8L184.33-21.8Q185.73-21.8 186.93-21.28 188.13-20.75 189.23-19.6L189.23-19.6Q188.93-18.1 188.68-17 188.43-15.9 188.11-14.83 187.78-13.75 187.33-12.2L187.33-12.2 184.53-12.2Q184.18-14.05 183.51-15.43 182.83-16.8 181.68-17.3L181.68-17.3Q180.43-16.5 179.31-14.33 178.18-12.15 178.18-8.55L178.18-8.55 176.23-11.45Q176.63-14.25 177.78-16.6 178.93-18.95 180.61-20.38 182.28-21.8 184.33-21.8ZM213.63-37.35L213.63-37.35Q213.63-34.15 213.61-30.35 213.58-26.55 213.58-21.7L213.58-21.7Q213.58-17.65 213.58-13.88 213.58-10.1 213.61-7.23 213.63-4.35 213.68-2.9L213.68-2.9 217.43-1.85 216.68 0Q215.38-0.1 214.13-0.1 212.88-0.1 211.08-0.1L211.08-0.1Q209.73-0.1 208.83-0.08 207.93-0.05 207.23 0L207.23 0Q207.18-1 207.06-1.88 206.93-2.75 206.83-3.7L206.83-3.7Q206.88-5.95 206.91-8.2 206.93-10.45 206.93-12.55L206.93-12.55Q206.93-14 206.93-15.4 206.93-16.8 206.88-18.3L206.88-18.3Q206.88-20.6 206.81-23.3 206.73-26 206.61-28.7 206.48-31.4 206.28-33.6L206.28-33.6 202.23-34.25 201.78-36.4Q202.63-36.4 204.13-36.5 205.63-36.6 207.41-36.73 209.18-36.85 210.83-37.02 212.48-37.2 213.63-37.35ZM200.58-21.8L200.58-21.8Q203.33-21.8 205.43-20.35 207.53-18.9 208.48-16.25L208.48-16.25 206.93-12Q206.93-13.75 206.21-15.18 205.48-16.6 204.43-17.53 203.38-18.45 202.43-18.65L202.43-18.65Q200.43-18.05 199.31-15.9 198.18-13.75 198.18-10.95L198.18-10.95Q198.18-7.15 199.63-5.3 201.08-3.45 202.93-3.45L202.93-3.45Q204.68-3.45 206.26-5.35 207.83-7.25 208.43-10.35L208.43-10.35 209.98-8.1Q208.63-4.45 206.31-2.05 203.98 0.35 200.58 0.35L200.58 0.35Q198.33 0.35 196.21-0.93 194.08-2.2 192.73-4.73 191.38-7.25 191.38-11.05L191.38-11.05Q191.38-14.6 192.78-17 194.18-19.4 196.31-20.6 198.43-21.8 200.58-21.8Z" opacity="1" transform="matrix(1,0,0,1,0,0)" fill="#000000" class="wordmark-text-0" data-fill-palette-color="primary" id="text-0"></path></svg></g></svg></g><g transform="matrix(1,0,0,1,3.5,76.02673827949786)"><svg viewBox="0 0 309.416 33.06402314406969" height="33.06402314406969" width="309.416"><g transform="matrix(1,0,0,1,0,0)"><svg width="309.416" viewBox="-2 -41.8 550.86 59.25" height="33.06402314406969" data-palette-color="#89939e"><path d="M12.2 1L12.2 1Q9.4 1 7.08-0.68 4.75-2.35 3.38-5.3 2-8.25 2-12.05L2-12.05Q2-16.4 3.55-19.5 5.1-22.6 7.93-24.28 10.75-25.95 14.6-25.95L14.6-25.95Q16-25.95 17.43-25.6 18.85-25.25 19.95-24.7L19.95-24.7 20.1-24.7 20.1-34.3 15.95-34.7Q15.8-35.7 16.2-36.45L16.2-36.45Q19.8-37 22.95-37.8L22.95-37.8Q23.9-37.75 24.95-37.25L24.95-37.25 24.95-2.4Q25.4-2 26.45-1.75 27.5-1.5 28.45-1.4L28.45-1.4Q28.6-0.45 28.2 0.35L28.2 0.35Q27.4 0.5 26.28 0.6 25.15 0.7 24 0.7L24 0.7Q22.35 0.7 21.15 0.4L21.15 0.4Q20.75-0.25 20.53-0.9 20.3-1.55 20.2-2.25L20.2-2.25 19.95-2.25Q17.85-0.45 16.07 0.28 14.3 1 12.2 1ZM14.25-1.9L14.25-1.9Q16.2-1.9 17.6-2.73 19-3.55 19.95-4.55L19.95-4.55 19.95-21.95Q19-22.8 17.73-23.18 16.45-23.55 15-23.55L15-23.55Q11.1-23.55 9.2-20.55 7.3-17.55 7.3-12.5L7.3-12.5Q7.3-7.35 9.08-4.63 10.85-1.9 14.25-1.9ZM71.84 0.85L71.84 0.85Q68.84 0.85 66.79-0.73 64.74-2.3 64.74-5.5L64.74-5.5Q64.74-8 65.97-9.6 67.19-11.2 69.27-12.08 71.34-12.95 73.89-13.25 76.44-13.55 79.09-13.5L79.09-13.5 79.14-17.9Q79.19-20.7 78.09-22.23 76.99-23.75 74.74-23.75L74.74-23.75Q73.49-23.75 72.34-23.58 71.19-23.4 70.04-23L70.04-23 69.39-17.7Q68.99-17.5 68.29-17.48 67.59-17.45 67.19-17.5L67.19-17.5Q66.74-19.15 66.44-20.8 66.14-22.45 66.19-24L66.19-24Q68.54-25.1 70.92-25.55 73.29-26 76.09-26L76.09-26Q78.89-26 80.62-25.1 82.34-24.2 83.17-22 83.99-19.8 83.99-15.85L83.99-15.85 83.99-2.45Q84.84-2.05 85.74-1.88 86.64-1.7 87.49-1.45L87.49-1.45Q87.64-0.5 87.24 0.3L87.24 0.3Q86.44 0.45 85.32 0.55 84.19 0.65 83.04 0.65L83.04 0.65Q81.39 0.65 80.19 0.35L80.19 0.35 79.49-2.25 79.29-2.25Q78.04-0.95 76.19-0.05 74.34 0.85 71.84 0.85ZM73.74-1.9L73.74-1.9Q75.14-1.9 76.74-2.78 78.34-3.65 79.09-4.75L79.09-4.75 79.09-11.5Q73.94-11.5 71.84-10.28 69.74-9.05 69.74-6L69.74-6Q69.74-3.95 70.84-2.93 71.94-1.9 73.74-1.9ZM132.18-24.95L132.18-2.5 135.53-1.5Q135.68-0.55 135.28 0.25L135.28 0.25Q133.93 0.15 132.51 0.08 131.08 0 129.68 0L129.68 0Q128.28 0 126.63 0.08 124.98 0.15 123.58 0.25L123.58 0.25Q123.43-0.7 123.68-1.5L123.68-1.5Q124.63-1.75 125.56-1.95 126.48-2.15 127.18-2.5L127.18-2.5 127.18-22 123.03-22.4Q122.88-23.4 123.28-24.15L123.28-24.15Q125.08-24.4 126.91-24.75 128.73-25.1 130.28-25.5L130.28-25.5Q130.78-25.45 131.23-25.33 131.68-25.2 132.18-24.95L132.18-24.95ZM128.83-30.05L128.83-30.05Q127.98-30.05 127.28-30.6 126.58-31.15 126.18-31.95 125.78-32.75 125.78-33.45L125.78-33.45Q125.78-34.1 126.33-34.77 126.88-35.45 127.71-35.93 128.53-36.4 129.33-36.4L129.33-36.4Q130.23-36.4 130.93-35.83 131.63-35.25 132.01-34.48 132.38-33.7 132.38-33L132.38-33Q132.38-32.35 131.86-31.65 131.33-30.95 130.51-30.5 129.68-30.05 128.83-30.05ZM179.87-37.25L179.87-2.5 183.72-1.5Q183.87-0.55 183.47 0.25L183.47 0.25Q182.12 0.15 180.45 0.08 178.77 0 177.37 0L177.37 0Q175.97 0 174.32 0.08 172.67 0.15 171.27 0.25L171.27 0.25Q171.12-0.7 171.37-1.5L171.37-1.5Q172.32-1.75 173.25-1.95 174.17-2.15 174.87-2.5L174.87-2.5 174.87-34.3 170.72-34.7Q170.57-35.7 170.97-36.45L170.97-36.45Q172.77-36.7 174.6-37.05 176.42-37.4 177.97-37.8L177.97-37.8Q178.47-37.75 178.92-37.63 179.37-37.5 179.87-37.25L179.87-37.25ZM223.86 13.45L223.86 13.45Q223.01 12.15 222.14 10.45 221.26 8.75 221.01 7.05L221.01 7.05Q221.31 6.8 221.89 6.58 222.46 6.35 222.91 6.35L222.91 6.35 226.11 10.1Q227.46 8.8 228.89 6.18 230.31 3.55 231.56 0.2L231.56 0.2 222.46-22.5 218.61-23.5Q218.46-24.45 218.86-25.25L218.86-25.25Q220.21-25.2 221.79-25.1 223.36-25 224.76-25L224.76-25Q226.21-25 227.89-25.1 229.56-25.2 230.96-25.25L230.96-25.25Q231.11-24.3 230.86-23.5L230.86-23.5Q229.96-23.3 229.09-23.1 228.21-22.9 227.41-22.5L227.41-22.5 231.56-12.45Q231.81-11.85 232.31-10.63 232.81-9.4 233.31-7.85 233.81-6.3 234.11-4.7L234.11-4.7 234.26-4.7Q234.56-5.85 234.91-7.38 235.26-8.9 236.21-11.35L236.21-11.35 240.46-22.5 237.01-23.5Q236.86-24.45 237.26-25.25L237.26-25.25Q238.61-25.2 239.69-25.1 240.76-25 242.16-25L242.16-25Q243.61-25 244.61-25.1 245.61-25.2 247.01-25.25L247.01-25.25Q247.16-24.3 246.91-23.5L246.91-23.5Q246.01-23.3 245.09-23.1 244.16-22.9 243.46-22.5L243.46-22.5 233.66 2.35Q232.36 5.65 230.76 8.15 229.16 10.65 227.41 12.05 225.66 13.45 223.86 13.45ZM336.44-25.05L336.29-21.65 336.34-21.6Q338.74-24 341.29-24.9 343.84-25.8 345.74-25.8L345.74-25.8Q348.99-25.8 350.87-23.95 352.74-22.1 352.74-18.55L352.74-18.55 352.79-2.5 356.29-1.5Q356.44-0.55 356.04 0.25L356.04 0.25Q354.69 0.15 353.19 0.08 351.69 0 350.29 0L350.29 0Q348.89 0 347.34 0.08 345.79 0.15 344.39 0.25L344.39 0.25Q344.24-0.7 344.49-1.5L344.49-1.5Q345.49-1.7 346.27-1.95 347.04-2.2 347.79-2.5L347.79-2.5 347.79-16.3Q347.79-19.7 346.74-21 345.69-22.3 343.39-22.3L343.39-22.3Q341.54-22.3 339.79-21.58 338.04-20.85 336.69-19.3L336.69-19.3 336.69-2.5 340.04-1.5Q340.19-0.55 339.79 0.25L339.79 0.25Q338.44 0.15 337.02 0.08 335.59 0 334.19 0L334.19 0Q332.79 0 331.14 0.08 329.49 0.15 328.09 0.25L328.09 0.25Q327.94-0.7 328.19-1.5L328.19-1.5Q329.09-1.75 329.99-1.98 330.89-2.2 331.69-2.5L331.69-2.5 331.69-22 327.54-22.4Q327.39-23.4 327.79-24.15L327.79-24.15Q329.64-24.45 331.39-24.8 333.14-25.15 334.74-25.5L334.74-25.5Q335.59-25.45 336.44-25.05L336.44-25.05ZM397.93-13.5L397.93-12.5Q397.93-7.45 399.96-4.67 401.98-1.9 405.48-1.9L405.48-1.9Q407.03-1.9 408.08-2.08 409.13-2.25 410.16-2.75 411.18-3.25 412.48-4.15L412.48-4.15Q413.28-3.8 413.38-2.95L413.38-2.95Q411.83-1.15 409.68-0.15 407.53 0.85 405.33 0.85L405.33 0.85Q401.53 0.85 398.68-0.75 395.83-2.35 394.23-5.35 392.63-8.35 392.63-12.5L392.63-12.5Q392.63-16.75 394.31-19.73 395.98-22.7 398.81-24.28 401.63-25.85 405.08-25.85L405.08-25.85Q409.53-25.85 411.66-22.88 413.78-19.9 413.78-15.2L413.78-15.2Q413.78-14.85 413.78-14.55 413.78-14.25 413.73-13.9L413.73-13.9 413.03-13.35 397.93-13.5ZM405.03-23.7L405.03-23.7Q403.58-23.7 402.16-22.8 400.73-21.9 399.63-20.1 398.53-18.3 398.13-15.55L398.13-15.55 409.03-16.15Q409.03-20 408.21-21.85 407.38-23.7 405.03-23.7ZM477.17 1.4L470.87-16.65 464.67 0.7Q464.32 0.9 463.55 1.13 462.77 1.35 462.32 1.35L462.32 1.35 453.12-22.5 449.27-23.5Q449.12-24.45 449.52-25.25L449.52-25.25Q450.87-25.2 452.55-25.1 454.22-25 455.62-25L455.62-25Q457.07-25 458.8-25.1 460.52-25.2 461.92-25.25L461.92-25.25Q462.07-24.3 461.82-23.5L461.82-23.5Q460.92-23.3 460-23.08 459.07-22.85 458.37-22.5L458.37-22.5 462.07-12.05Q462.67-10.35 463.22-8.5 463.77-6.65 464.17-4.95L464.17-4.95 464.32-4.95Q464.77-6.7 465.3-8.5 465.82-10.3 466.37-11.85L466.37-11.85 469.57-20.4 468.87-22.5 465.02-23.5Q464.87-24.45 465.27-25.25L465.27-25.25Q466.62-25.2 468.22-25.1 469.82-25 471.22-25L471.22-25Q472.67-25 474.12-25.1 475.57-25.2 476.97-25.25L476.97-25.25Q477.12-24.3 476.87-23.5L476.87-23.5Q475.97-23.3 475.02-23.1 474.07-22.9 473.42-22.5L473.42-22.5 476.77-11.6Q477.32-9.75 477.87-8 478.42-6.25 478.87-4.45L478.87-4.45 479.02-4.45Q479.42-6.15 479.92-7.83 480.42-9.5 480.97-11.2L480.97-11.2 484.52-22.5 480.67-23.5Q480.52-24.45 480.92-25.25L480.92-25.25Q482.27-25.2 483.4-25.1 484.52-25 485.92-25L485.92-25Q487.37-25 488.6-25.1 489.82-25.2 491.22-25.25L491.22-25.25Q491.37-24.3 491.12-23.5L491.12-23.5Q490.17-23.3 489.25-23.1 488.32-22.9 487.57-22.5L487.57-22.5 479.57 0.7Q479.22 0.9 478.42 1.15 477.62 1.4 477.17 1.4L477.17 1.4ZM529.96-7.5L530.46-2.2Q531.51-1.7 532.59-1.5 533.66-1.3 535.01-1.3L535.01-1.3Q537.06-1.3 538.66-2.2 540.26-3.1 540.26-5.1L540.26-5.1Q540.26-6.15 539.69-7.05 539.11-7.95 537.69-8.9 536.26-9.85 533.61-11.05L533.61-11.05Q530.71-12.4 529.11-14.18 527.51-15.95 527.51-19.1L527.51-19.1Q527.51-21.65 528.79-23.13 530.06-24.6 532.09-25.25 534.11-25.9 536.36-25.9L536.36-25.9Q538.31-25.9 540.24-25.53 542.16-25.15 543.66-24.5L543.66-24.5Q543.66-24.25 543.69-23.95 543.71-23.65 543.71-23.4L543.71-23.4Q543.71-20.35 542.76-17.65L542.76-17.65Q542.56-17.6 542.39-17.57 542.21-17.55 542.01-17.55L542.01-17.55Q541.26-17.55 540.51-17.85L540.51-17.85 539.71-23.25Q539.06-23.45 538.21-23.58 537.36-23.7 536.51-23.7L536.51-23.7Q535.36-23.7 534.24-23.38 533.11-23.05 532.39-22.28 531.66-21.5 531.66-20.1L531.66-20.1Q531.66-19.15 532.09-18.3 532.51-17.45 533.79-16.53 535.06-15.6 537.61-14.35L537.61-14.35Q541.61-12.45 543.24-10.68 544.86-8.9 544.86-6.25L544.86-6.25Q544.86-3.7 543.51-2.1 542.16-0.5 539.99 0.25 537.81 1 535.36 1L535.36 1Q533.01 1 530.99 0.63 528.96 0.25 526.91-1L526.91-1 526.91-1.85Q526.91-3.2 527.09-4.63 527.26-6.05 527.81-7.7L527.81-7.7Q528.11-7.75 528.31-7.75L528.31-7.75Q529.21-7.75 529.96-7.5L529.96-7.5Z" opacity="1" transform="matrix(1,0,0,1,0,0)" fill="#89939e" class="slogan-text-1" data-fill-palette-color="secondary" id="text-1"></path></svg></g></svg></g></svg></g></svg></g><g></g></svg></g></svg></g></svg></g><g mask="url(#95a98975-5c6d-4d17-9c80-8aabce87812a)"><g transform="matrix(3.5669605190422153, 0, 0, 3.5669605190422153, 120.86168165022838, 1)"><svg xmlns="http://www.w3.org/2000/svg" xmlns:xlink="http://www.w3.org/1999/xlink" version="1.1" x="0" y="0" viewBox="24.883 14.258 43.117000000000004 68.742" enable-background="new 0 0 100 100" xml:space="preserve" height="68.742" width="43.117000000000004" class="icon-none" data-fill-palette-color="accent" id="none"><g fill="#000000" data-fill-palette-color="accent"><path fill="none" d="M49.726 20.717A6.56 6.56 0 1 0 49.726 33.836 6.56 6.56 0 0 0 49.725 20.717M55.57 26.294A3.398 3.398 0 1 1 48.774 26.296 3.398 3.398 0 0 1 55.57 26.294"></path><path d="M68 28.992L63.984 26.674 61.011 24.957C58.966 15.805 49.504 14.258 49.504 14.258 36.921 16.617 36.133 26.985 37.149 34.027 30.99 35.456 24.883 33.358 24.883 33.358 30.7 43.027 35.283 42.631 38.445 39.712 38.653 40.367 38.797 40.741 38.797 40.741 36.607 47.026 28.819 40.741 28.819 40.741 33.448 48.192 37.489 52.302 40.978 54.202V79.722H41.423L42.666 83 43.602 82.645 43.264 81.754 44.916 82.805 45.335 82.147 45.523 81.928 44.038 80.649 44.99 80.714 45.058 79.716 42.979 79.573V55.08C45.138 55.787 47.058 55.623 48.748 54.914V79.721H49.129L50.37 83 51.305 82.645 50.968 81.753 52.622 82.805 53.04 82.147 53.229 81.928 51.743 80.649 52.694 80.714 52.762 79.716 50.748 79.578V53.761C56.049 49.831 58.51 40.74 58.51 40.74 59.725 37.888 60.504 35.344 60.948 33.064L63.985 31.31zM49.726 33.836A6.56 6.56 0 1 1 49.726 20.715 6.56 6.56 0 0 1 49.725 33.836" fill="#000000" data-fill-palette-color="accent"></path><circle cx="52.172" cy="26.294" r="3.4" fill="#000000" data-fill-palette-color="accent"></circle></g></svg></g></g></svg></g><defs></defs></svg><rect width="395.52" height="247.2" fill="none" stroke="none" visibility="hidden"></rect></g></svg></g></svg>